<?xml version="1.0" encoding="UTF-8"?>
<svg width="514px" height="448px" viewBox="0 0 514 448" version="1.1" xmlns="http://www.w3.org/2000/svg" xmlns:xlink="http://www.w3.org/1999/xlink">
    <!-- Generator: Sketch 60.1 (88133) - https://sketch.com -->
    <title>application-code-strcuture</title>
    <desc>Created with Sketch.</desc>
    <g id="Page-1" stroke="none" stroke-width="1" fill="none" fill-rule="evenodd">
        <g id="Code-Structure" transform="translate(-173.000000, -85.000000)">
            <g id="application-code-strcuture" transform="translate(173.000000, 86.000000)">
                <g id="Structure">
                    <g id="Module-Block" transform="translate(80.000000, 153.856369)">
                        <polygon id="Fill-115" fill="#2C96B7" fill-rule="evenodd" points="0 50.5420054 50 50.5420054 50 0 0 0"></polygon>
                        <text id="Module" font-family="Cobbler-Black" font-size="9" font-weight="700" fill="#FFFFFF">
                            <tspan x="8.485" y="7.27100271">Adapter</tspan>
                        </text>
                    </g>
                    <g id="Module-Block" transform="translate(0.000000, 314.579946)">
                        <polygon id="Fill-115" fill="#2C96B7" fill-rule="evenodd" points="0 50.5420054 50 50.5420054 50 0 0 0"></polygon>
                        <text id="Module" font-family="Cobbler-Black" font-size="9" font-weight="700" fill="#FFFFFF">
                            <tspan x="9.5875" y="7.27100271">Domain</tspan>
                        </text>
                    </g>
                    <g id="Module-Block" transform="translate(160.000000, -0.000000)">
                        <polygon id="Fill-115" fill="#2C96B7" fill-rule="evenodd" points="0 49.7 50 49.7 50 0 0 0"></polygon>
                        <text id="Module" font-family="Cobbler-Black" font-size="9" font-weight="700" fill="#FFFFFF">
                            <tspan x="3.8365" y="6.85">Controller</tspan>
                        </text>
                    </g>
                    <path id="Line-6" d="M189.809343,72.3190816 L190.680918,72.8093429 L190.435788,73.2451306 L185.935788,81.2451306 L185.5,82.0198644 L185.064212,81.2451306 L180.564212,73.2451306 L180.319082,72.8093429 L181.190657,72.3190816 L181.435788,72.7548694 L185.5,79.98 L189.564212,72.7548694 L189.809343,72.3190816 Z M186,73 L186,78 L185,78 L185,73 L186,73 Z M186,65 L186,70 L185,70 L185,65 L186,65 Z M186,57 L186,62 L185,62 L185,57 L186,57 Z M186,49 L186,54 L185,54 L185,49 L186,49 Z" fill="#979797" fill-rule="nonzero"></path>
                    <g id="Module-Block" transform="translate(160.000000, 152.845528)">
                        <polygon id="Fill-115" fill="#2C96B7" fill-rule="evenodd" points="0 50.5420054 50 50.5420054 50 0 0 0"></polygon>
                        <text id="Module" font-family="Cobbler-Black" font-size="9" font-weight="700" fill="#FFFFFF">
                            <tspan x="15.928" y="7.27100271">Port</tspan>
                        </text>
                    </g>
                    <g id="Module-Block" transform="translate(80.000000, 314.579946)">
                        <polygon id="Fill-115" fill="#2C96B7" fill-rule="evenodd" points="0 50.5420054 50 50.5420054 50 0 0 0"></polygon>
                        <text id="Module" font-family="Cobbler-Black" font-size="9" font-weight="700" fill="#FFFFFF">
                            <tspan x="13.804" y="7.27100271">Store</tspan>
                        </text>
                    </g>
                    <g id="Module-Block" transform="translate(160.000000, 233.712737)">
                        <polygon id="Fill-115" fill="#2C96B7" fill-rule="evenodd" points="0 50.5420054 50 50.5420054 50 0 0 0"></polygon>
                        <text id="Module" font-family="Cobbler-Black" font-size="9" font-weight="700" fill="#FFFFFF">
                            <tspan x="7.6525" y="7.27100271">UseCase</tspan>
                        </text>
                    </g>
                    <g id="Module-Block" transform="translate(240.000000, 233.712737)">
                        <polygon id="Fill-115" fill="#2C96B7" fill-rule="evenodd" points="0 50.5420054 50 50.5420054 50 0 0 0"></polygon>
                        <text id="Module" font-family="Cobbler-Black" font-size="9" font-weight="700" fill="#FFFFFF">
                            <tspan x="6.4915" y="7.27100271">Contract</tspan>
                        </text>
                    </g>
                    <g id="Module-Block" transform="translate(240.000000, 152.845528)">
                        <polygon id="Fill-115" fill="#2C96B7" fill-rule="evenodd" points="0 50.5420054 50 50.5420054 50 0 0 0"></polygon>
                        <text id="Module" font-family="Cobbler-Black" font-size="9" font-weight="700" fill="#FFFFFF">
                            <tspan x="1.924" y="7.27100271">Integration</tspan>
                        </text>
                    </g>
                    <g id="Module-Block" transform="translate(160.000000, 314.579946)">
                        <polygon id="Fill-115" fill="#2C96B7" fill-rule="evenodd" points="0 50.5420054 50 50.5420054 50 0 0 0"></polygon>
                        <text id="Module" font-family="Cobbler-Black" font-size="9" font-weight="700" fill="#FFFFFF">
                            <tspan x="7.6525" y="7.27100271">UseCase</tspan>
                            <tspan x="9.3445" y="16.2710027">Factory</tspan>
                        </text>
                    </g>
                    <g id="Shared-Dependency-Block" transform="translate(80.000000, 396.457995)">
                        <polygon id="Fill-115" fill="#4CBBC5" fill-rule="evenodd" points="0 50.5420054 50 50.5420054 50 0 0 0"></polygon>
                        <text id="Dependency" font-family="Cobbler-Black" font-size="9" font-weight="700" fill="#FFFFFF">
                            <tspan x="9.088" y="7.27100271">Develop</tspan>
                            <tspan x="13.804" y="16.2710027">Store</tspan>
                        </text>
                    </g>
                    <g id="Shared-Dependency-Block" transform="translate(160.000000, 396.457995)">
                        <polygon id="Fill-115" fill="#4CBBC5" fill-rule="evenodd" points="0 50.5420054 50 50.5420054 50 0 0 0"></polygon>
                        <text id="Dependency" font-family="Cobbler-Black" font-size="9" font-weight="700" fill="#FFFFFF">
                            <tspan x="9.088" y="7.27100271">Develop</tspan>
                            <tspan x="7.6525" y="16.2710027">UseCase</tspan>
                        </text>
                    </g>
                    <g id="Shared-Dependency-Block" transform="translate(0.000000, 396.457995)">
                        <polygon id="Fill-115" fill="#4CBBC5" fill-rule="evenodd" points="0 50.5420054 50 50.5420054 50 0 0 0"></polygon>
                        <text id="Dependency" font-family="Cobbler-Black" font-size="9" font-weight="700" fill="#FFFFFF">
                            <tspan x="9.088" y="7.27100271">Develop</tspan>
                            <tspan x="10.5325" y="16.2710027">Shared</tspan>
                        </text>
                    </g>
                    <path id="Line-Copy" d="M190.245131,389.027627 C190.459067,389.147966 190.550283,389.402212 190.472829,389.626262 L190.435788,389.708545 L185.935788,397.708545 C185.760565,398.020052 185.334839,398.046011 185.117866,397.786422 L185.064212,397.708545 L180.564212,389.708545 C180.42883,389.467866 180.51419,389.163009 180.754869,389.027627 C180.968806,388.907287 181.233452,388.961361 181.384704,389.1439 L181.435788,389.218284 L185.5,396.444 L189.564212,389.218284 C189.699594,388.977605 190.004452,388.892245 190.245131,389.027627 Z M185.5,389.127371 C185.74546,389.127371 185.949608,389.304246 185.991944,389.537496 L186,389.627371 L186,393.627371 C186,393.903514 185.776142,394.127371 185.5,394.127371 C185.25454,394.127371 185.050392,393.950496 185.008056,393.717247 L185,393.627371 L185,389.627371 C185,389.351229 185.223858,389.127371 185.5,389.127371 Z M185.5,381.127371 C185.74546,381.127371 185.949608,381.304246 185.991944,381.537496 L186,381.627371 L186,385.627371 C186,385.903514 185.776142,386.127371 185.5,386.127371 C185.25454,386.127371 185.050392,385.950496 185.008056,385.717247 L185,385.627371 L185,381.627371 C185,381.351229 185.223858,381.127371 185.5,381.127371 Z M185.5,373.127371 C185.74546,373.127371 185.949608,373.304246 185.991944,373.537496 L186,373.627371 L186,377.627371 C186,377.903514 185.776142,378.127371 185.5,378.127371 C185.25454,378.127371 185.050392,377.950496 185.008056,377.717247 L185,377.627371 L185,373.627371 C185,373.351229 185.223858,373.127371 185.5,373.127371 Z M185.5,365.127371 C185.74546,365.127371 185.949608,365.304246 185.991944,365.537496 L186,365.627371 L186,369.627371 C186,369.903514 185.776142,370.127371 185.5,370.127371 C185.25454,370.127371 185.050392,369.950496 185.008056,369.717247 L185,369.627371 L185,365.627371 C185,365.351229 185.223858,365.127371 185.5,365.127371 Z" fill="#979797" fill-rule="nonzero"></path>
                    <path id="Line-Copy-2" d="M110.245131,389.027627 C110.459067,389.147966 110.550283,389.402212 110.472829,389.626262 L110.435788,389.708545 L105.935788,397.708545 C105.760565,398.020052 105.334839,398.046011 105.117866,397.786422 L105.064212,397.708545 L100.564212,389.708545 C100.42883,389.467866 100.51419,389.163009 100.754869,389.027627 C100.968806,388.907287 101.233452,388.961361 101.384704,389.1439 L101.435788,389.218284 L105.5,396.444 L109.564212,389.218284 C109.699594,388.977605 110.004452,388.892245 110.245131,389.027627 Z M105.5,389.127371 C105.74546,389.127371 105.949608,389.304246 105.991944,389.537496 L106,389.627371 L106,393.627371 C106,393.903514 105.776142,394.127371 105.5,394.127371 C105.25454,394.127371 105.050392,393.950496 105.008056,393.717247 L105,393.627371 L105,389.627371 C105,389.351229 105.223858,389.127371 105.5,389.127371 Z M105.5,381.127371 C105.74546,381.127371 105.949608,381.304246 105.991944,381.537496 L106,381.627371 L106,385.627371 C106,385.903514 105.776142,386.127371 105.5,386.127371 C105.25454,386.127371 105.050392,385.950496 105.008056,385.717247 L105,385.627371 L105,381.627371 C105,381.351229 105.223858,381.127371 105.5,381.127371 Z M105.5,373.127371 C105.74546,373.127371 105.949608,373.304246 105.991944,373.537496 L106,373.627371 L106,377.627371 C106,377.903514 105.776142,378.127371 105.5,378.127371 C105.25454,378.127371 105.050392,377.950496 105.008056,377.717247 L105,377.627371 L105,373.627371 C105,373.351229 105.223858,373.127371 105.5,373.127371 Z M105.5,365.127371 C105.74546,365.127371 105.949608,365.304246 105.991944,365.537496 L106,365.627371 L106,369.627371 C106,369.903514 105.776142,370.127371 105.5,370.127371 C105.25454,370.127371 105.050392,369.950496 105.008056,369.717247 L105,369.627371 L105,365.627371 C105,365.351229 105.223858,365.127371 105.5,365.127371 Z" fill="#979797" fill-rule="nonzero"></path>
                    <path id="Line" d="M30.2451306,389.027627 C30.4590675,389.147966 30.5502832,389.402212 30.4728292,389.626262 L30.4357878,389.708545 L25.9357878,397.708545 C25.7605651,398.020052 25.3348392,398.046011 25.117866,397.786422 L25.0642122,397.708545 L20.5642122,389.708545 C20.4288303,389.467866 20.5141904,389.163009 20.7548694,389.027627 C20.9688062,388.907287 21.2334521,388.961361 21.3847041,389.1439 L21.4357878,389.218284 L25.5,396.444 L29.5642122,389.218284 C29.6995941,388.977605 30.0044517,388.892245 30.2451306,389.027627 Z M25.5,389.127371 C25.7454599,389.127371 25.9496084,389.304246 25.9919443,389.537496 L26,389.627371 L26,393.627371 C26,393.903514 25.7761424,394.127371 25.5,394.127371 C25.2545401,394.127371 25.0503916,393.950496 25.0080557,393.717247 L25,393.627371 L25,389.627371 C25,389.351229 25.2238576,389.127371 25.5,389.127371 Z M25.5,381.127371 C25.7454599,381.127371 25.9496084,381.304246 25.9919443,381.537496 L26,381.627371 L26,385.627371 C26,385.903514 25.7761424,386.127371 25.5,386.127371 C25.2545401,386.127371 25.0503916,385.950496 25.0080557,385.717247 L25,385.627371 L25,381.627371 C25,381.351229 25.2238576,381.127371 25.5,381.127371 Z M25.5,373.127371 C25.7454599,373.127371 25.9496084,373.304246 25.9919443,373.537496 L26,373.627371 L26,377.627371 C26,377.903514 25.7761424,378.127371 25.5,378.127371 C25.2545401,378.127371 25.0503916,377.950496 25.0080557,377.717247 L25,377.627371 L25,373.627371 C25,373.351229 25.2238576,373.127371 25.5,373.127371 Z M25.5,365.127371 C25.7454599,365.127371 25.9496084,365.304246 25.9919443,365.537496 L26,365.627371 L26,369.627371 C26,369.903514 25.7761424,370.127371 25.5,370.127371 C25.2545401,370.127371 25.0503916,369.950496 25.0080557,369.717247 L25,369.627371 L25,365.627371 C25,365.351229 25.2238576,365.127371 25.5,365.127371 Z" fill="#979797" fill-rule="nonzero"></path>
                    <path id="Line-Copy-3" d="M58.4357878,335.611238 C58.5561272,335.825175 58.5020533,336.089821 58.3195146,336.241073 L58.2451306,336.292156 L51.02,340.356 L58.2451306,344.420581 C58.4590675,344.54092 58.5502832,344.795166 58.4728292,345.019216 L58.4357878,345.101499 C58.3154483,345.315436 58.0612021,345.406652 57.8371522,345.329198 L57.7548694,345.292156 L49.7548694,340.792156 C49.4433624,340.616934 49.4174034,340.191208 49.6769926,339.974235 L49.7548694,339.920581 L57.7548694,335.420581 C57.9955483,335.285199 58.3004059,335.370559 58.4357878,335.611238 Z M80.5,339.856369 C80.7761424,339.856369 81,340.080226 81,340.356369 C81,340.601828 80.8231248,340.805977 80.5898756,340.848313 L80.5,340.856369 L76.5,340.856369 C76.2238576,340.856369 76,340.632511 76,340.356369 C76,340.110909 76.1768752,339.90676 76.4101244,339.864424 L76.5,339.856369 L80.5,339.856369 Z M72.5,339.856369 C72.7761424,339.856369 73,340.080226 73,340.356369 C73,340.601828 72.8231248,340.805977 72.5898756,340.848313 L72.5,340.856369 L68.5,340.856369 C68.2238576,340.856369 68,340.632511 68,340.356369 C68,340.110909 68.1768752,339.90676 68.4101244,339.864424 L68.5,339.856369 L72.5,339.856369 Z M64.5,339.856369 C64.7761424,339.856369 65,340.080226 65,340.356369 C65,340.601828 64.8231248,340.805977 64.5898756,340.848313 L64.5,340.856369 L60.5,340.856369 C60.2238576,340.856369 60,340.632511 60,340.356369 C60,340.110909 60.1768752,339.90676 60.4101244,339.864424 L60.5,339.856369 L64.5,339.856369 Z M56.5,339.856369 C56.7761424,339.856369 57,340.080226 57,340.356369 C57,340.601828 56.8231248,340.805977 56.5898756,340.848313 L56.5,340.856369 L52.5,340.856369 C52.2238576,340.856369 52,340.632511 52,340.356369 C52,340.110909 52.1768752,339.90676 52.4101244,339.864424 L52.5,339.856369 L56.5,339.856369 Z" fill="#979797" fill-rule="nonzero"></path>
                    <path id="Line-Copy-4" d="M185.5,284.260163 C185.74546,284.260163 185.949608,284.437038 185.991944,284.670287 L186,284.760163 L186,306.585 L189.46314,306.585366 C189.72999,306.585366 189.951367,306.780058 189.992973,307.035144 L190,307.122226 C190,307.205571 189.980595,307.287771 189.943322,307.362317 L189.943322,307.362317 L185.980241,315.288479 C185.847642,315.553677 185.525165,315.661169 185.259968,315.52857 C185.156071,315.476622 185.071825,315.392377 185.019877,315.288479 L185.019877,315.288479 L181.056795,307.362317 C180.924197,307.09712 181.031689,306.774642 181.296886,306.642044 C181.371432,306.604771 181.453633,306.585366 181.536977,306.585366 L181.536977,306.585366 L185,306.585 L185,284.760163 C185,284.48402 185.223858,284.260163 185.5,284.260163 Z" fill="#979797" fill-rule="nonzero"></path>
                    <path id="Line-Copy-5" d="M122.245131,307.149578 C122.459067,307.269918 122.550283,307.524164 122.472829,307.748214 L122.435788,307.830496 L117.935788,315.830496 C117.760565,316.142003 117.334839,316.167962 117.117866,315.908373 L117.064212,315.830496 L112.564212,307.830496 C112.42883,307.589818 112.51419,307.28496 112.754869,307.149578 C112.968806,307.029239 113.233452,307.083313 113.384704,307.265851 L113.435788,307.340235 L117,313.677 L117,312.48916 C117,312.213018 117.223858,311.98916 117.5,311.98916 C117.74546,311.98916 117.949608,312.166035 117.991944,312.399284 L118,312.48916 L118,313.677 L121.564212,307.340235 C121.699594,307.099556 122.004452,307.014196 122.245131,307.149578 Z M117.5,303.98916 C117.74546,303.98916 117.949608,304.166035 117.991944,304.399284 L118,304.48916 L118,308.48916 C118,308.765302 117.776142,308.98916 117.5,308.98916 C117.25454,308.98916 117.050392,308.812285 117.008056,308.579036 L117,308.48916 L117,304.48916 C117,304.213018 117.223858,303.98916 117.5,303.98916 Z M117.5,295.98916 C117.74546,295.98916 117.949608,296.166035 117.991944,296.399284 L118,296.48916 L118,300.48916 C118,300.765302 117.776142,300.98916 117.5,300.98916 C117.25454,300.98916 117.050392,300.812285 117.008056,300.579036 L117,300.48916 L117,296.48916 C117,296.213018 117.223858,295.98916 117.5,295.98916 Z M117.5,287.98916 C117.74546,287.98916 117.949608,288.166035 117.991944,288.399284 L118,288.48916 L118,292.48916 C118,292.765302 117.776142,292.98916 117.5,292.98916 C117.25454,292.98916 117.050392,292.812285 117.008056,292.579036 L117,292.48916 L117,288.48916 C117,288.213018 117.223858,287.98916 117.5,287.98916 Z M117.5,279.98916 C117.74546,279.98916 117.949608,280.166035 117.991944,280.399284 L118,280.48916 L118,284.48916 C118,284.765302 117.776142,284.98916 117.5,284.98916 C117.25454,284.98916 117.050392,284.812285 117.008056,284.579036 L117,284.48916 L117,280.48916 C117,280.213018 117.223858,279.98916 117.5,279.98916 Z M117.5,271.98916 C117.74546,271.98916 117.949608,272.166035 117.991944,272.399284 L118,272.48916 L118,276.48916 C118,276.765302 117.776142,276.98916 117.5,276.98916 C117.25454,276.98916 117.050392,276.812285 117.008056,276.579036 L117,276.48916 L117,272.48916 C117,272.213018 117.223858,271.98916 117.5,271.98916 Z M117.5,263.98916 C117.74546,263.98916 117.949608,264.166035 117.991944,264.399284 L118,264.48916 L118,268.48916 C118,268.765302 117.776142,268.98916 117.5,268.98916 C117.25454,268.98916 117.050392,268.812285 117.008056,268.579036 L117,268.48916 L117,264.48916 C117,264.213018 117.223858,263.98916 117.5,263.98916 Z M120.5,258.98916 C120.776142,258.98916 121,259.213018 121,259.48916 C121,259.73462 120.823125,259.938768 120.589876,259.981104 L120.5,259.98916 L118,259.989 L118,260.48916 C118,260.73462 117.823125,260.938768 117.589876,260.981104 L117.5,260.98916 C117.25454,260.98916 117.050392,260.812285 117.008056,260.579036 L117,260.48916 L117,259.48916 C117,259.2437 117.176875,259.039552 117.410124,258.997216 L117.5,258.98916 L120.5,258.98916 Z M160.5,258.98916 C160.776142,258.98916 161,259.213018 161,259.48916 C161,259.73462 160.823125,259.938768 160.589876,259.981104 L160.5,259.98916 L156.5,259.98916 C156.223858,259.98916 156,259.765302 156,259.48916 C156,259.2437 156.176875,259.039552 156.410124,258.997216 L156.5,258.98916 L160.5,258.98916 Z M152.5,258.98916 C152.776142,258.98916 153,259.213018 153,259.48916 C153,259.73462 152.823125,259.938768 152.589876,259.981104 L152.5,259.98916 L148.5,259.98916 C148.223858,259.98916 148,259.765302 148,259.48916 C148,259.2437 148.176875,259.039552 148.410124,258.997216 L148.5,258.98916 L152.5,258.98916 Z M144.5,258.98916 C144.776142,258.98916 145,259.213018 145,259.48916 C145,259.73462 144.823125,259.938768 144.589876,259.981104 L144.5,259.98916 L140.5,259.98916 C140.223858,259.98916 140,259.765302 140,259.48916 C140,259.2437 140.176875,259.039552 140.410124,258.997216 L140.5,258.98916 L144.5,258.98916 Z M136.5,258.98916 C136.776142,258.98916 137,259.213018 137,259.48916 C137,259.73462 136.823125,259.938768 136.589876,259.981104 L136.5,259.98916 L132.5,259.98916 C132.223858,259.98916 132,259.765302 132,259.48916 C132,259.2437 132.176875,259.039552 132.410124,258.997216 L132.5,258.98916 L136.5,258.98916 Z M128.5,258.98916 C128.776142,258.98916 129,259.213018 129,259.48916 C129,259.73462 128.823125,259.938768 128.589876,259.981104 L128.5,259.98916 L124.5,259.98916 C124.223858,259.98916 124,259.765302 124,259.48916 C124,259.2437 124.176875,259.039552 124.410124,258.997216 L124.5,258.98916 L128.5,258.98916 Z" fill="#979797" fill-rule="nonzero"></path>
                    <path id="Line-Copy-6" d="M185,202.887534 C185.24546,202.887534 185.449608,203.064409 185.491944,203.297658 L185.5,203.387534 L185.500707,227.2186 C187.750342,227.467643 189.5,229.375023 189.5,231.691057 C189.5,234.176338 187.485281,236.191057 185,236.191057 C182.514719,236.191057 180.5,234.176338 180.5,231.691057 C180.5,229.374678 182.250179,227.467076 184.500297,227.218488 L184.5,203.387534 C184.5,203.111392 184.723858,202.887534 185,202.887534 Z" fill="#979797" fill-rule="nonzero"></path>
                    <path id="Line-26" d="M104.5,203.392954 C104.74546,203.392954 104.949608,203.569829 104.991944,203.803078 L105,203.892954 L104.999921,258.623794 L105.849,306.385 L109.311455,306.323864 C109.578262,306.319122 109.803064,306.509849 109.849198,306.764156 L109.857771,306.851099 C109.859252,306.93443 109.841311,307.016962 109.805369,307.092159 L109.805369,307.092159 L105.983775,315.087501 C105.85591,315.355013 105.535394,315.468219 105.267882,315.340354 C105.163078,315.29026 105.077349,315.207526 105.023562,315.104568 L105.023562,315.104568 L100.920245,307.250088 C100.782955,306.987289 100.884699,306.662952 101.147498,306.525662 C101.22137,306.48707 101.303212,306.466207 101.386544,306.464726 L101.386544,306.464726 L104.849,306.402 L104,258.63268 L104,203.892954 C104,203.616812 104.223858,203.392954 104.5,203.392954 Z" fill="#979797" fill-rule="nonzero"></path>
                    <g id="Api-Block" transform="translate(154.000000, 80.000000)">
                        <polygon id="Fill-114" fill="#2B6899" fill-rule="evenodd" points="0 30.3252033 63 30.3252033 63 0 0 0"></polygon>
                        <text id="API" font-family="Cobbler-Black" font-size="9" font-weight="700" fill="#D5D5D5">
                            <tspan x="7.875" y="7">Spring boot </tspan>
                            <tspan x="16.299" y="16">Starter</tspan>
                        </text>
                    </g>
                    <path id="Line-2" d="M218.190657,335.17545 L218.680918,336.047026 L218.245131,336.292156 L211.909,339.856 L216.596206,339.856369 L216.596206,340.856369 L211.909,340.856 L218.245131,344.420581 L218.680918,344.665711 L218.190657,345.537287 L217.754869,345.292156 L209.754869,340.792156 L208.980136,340.356369 L209.754869,339.920581 L217.754869,335.420581 L218.190657,335.17545 Z M264.596206,339.856369 L264.596206,340.856369 L259.596206,340.856369 L259.596206,339.856369 L264.596206,339.856369 Z M256.596206,339.856369 L256.596206,340.856369 L251.596206,340.856369 L251.596206,339.856369 L256.596206,339.856369 Z M248.596206,339.856369 L248.596206,340.856369 L243.596206,340.856369 L243.596206,339.856369 L248.596206,339.856369 Z M240.596206,339.856369 L240.596206,340.856369 L235.596206,340.856369 L235.596206,339.856369 L240.596206,339.856369 Z M232.596206,339.856369 L232.596206,340.856369 L227.596206,340.856369 L227.596206,339.856369 L232.596206,339.856369 Z M224.596206,339.856369 L224.596206,340.856369 L219.596206,340.856369 L219.596206,339.856369 L224.596206,339.856369 Z M211.596,340.032 L211.02,340.356 L211.596,340.68 L211.596,340.032 Z M265,332.260163 L265,337.260163 L264,337.260163 L264,332.260163 L265,332.260163 Z M265,324.260163 L265,329.260163 L264,329.260163 L264,324.260163 L265,324.260163 Z M265,316.260163 L265,321.260163 L264,321.260163 L264,316.260163 L265,316.260163 Z M265,308.260163 L265,313.260163 L264,313.260163 L264,308.260163 L265,308.260163 Z M265,300.260163 L265,305.260163 L264,305.260163 L264,300.260163 L265,300.260163 Z M265,292.260163 L265,297.260163 L264,297.260163 L264,292.260163 L265,292.260163 Z M265,284.260163 L265,289.260163 L264,289.260163 L264,284.260163 L265,284.260163 Z" fill="#979797" fill-rule="nonzero"></path>
                    <path id="Line-3" d="M265.5,203.392954 C265.74546,203.392954 265.949608,203.569829 265.991944,203.803078 L266,203.892954 L266,225.718 L269.46314,225.718157 C269.72999,225.718157 269.951367,225.912849 269.992973,226.167936 L270,226.255017 C270,226.338362 269.980595,226.420562 269.943322,226.495108 L269.943322,226.495108 L265.980241,234.421271 C265.847642,234.686468 265.525165,234.79396 265.259968,234.661362 C265.156071,234.609413 265.071825,234.525168 265.019877,234.421271 L265.019877,234.421271 L261.056795,226.495108 C260.924197,226.229911 261.031689,225.907434 261.296886,225.774835 C261.371432,225.737562 261.453633,225.718157 261.536977,225.718157 L261.536977,225.718157 L265,225.718 L265,203.892954 C265,203.616812 265.223858,203.392954 265.5,203.392954 Z" fill="#979797" fill-rule="nonzero"></path>
                    <g id="Api-Block" transform="translate(252.000000, 14.000000)">
                        <polygon id="Fill-114" fill="#2B6899" fill-rule="evenodd" points="0 16 63 16 63 0 0 0"></polygon>
                        <text id="API" font-family="Cobbler-Black" font-size="9" font-weight="700" fill="#D5D5D5">
                            <tspan x="8.352" y="7">Application</tspan>
                        </text>
                    </g>
                    <line x1="252.5" y1="22.5" x2="208.5" y2="22.5" id="Line-7" stroke="#979797" stroke-linecap="square"></line>
                    <polyline id="Line-8" stroke="#979797" stroke-linecap="square" points="283.5 30.5 283.5 95.5 217 95.5"></polyline>
                    <polyline id="Line-25" stroke="#979797" stroke-linecap="round" stroke-linejoin="round" points="206.5 110.5 206.5 128 264.5 128 264.5 154"></polyline>
                    <polyline id="Line-5" stroke="#979797" stroke-linecap="round" stroke-linejoin="round" points="166.5 110.5 166.5 128.5 104.5 128.5 104.5 153.5"></polyline>
                    <line x1="186.5" y1="110.5" x2="186.5" y2="154.5" id="Line-4" stroke="#979797" stroke-linecap="round" stroke-linejoin="round"></line>
                </g>
                <g id="Specs" transform="translate(355.000000, 0.000000)">
                    <rect id="Rectangle" stroke="#979797" x="0" y="0" width="158" height="289"></rect>
                    <path id="Line-Copy-7" d="M129.714915,25.4962652 L129.796786,25.5342086 L137.746856,30.1218437 C138.056418,30.3004787 138.077698,30.7264641 137.81574,30.9405718 L137.737278,30.9933666 L129.688314,35.4051881 C129.446162,35.5379172 129.142261,35.4492124 129.009532,35.2070603 C128.89155,34.9918141 128.948529,34.7277784 129.132718,34.5785413 L129.207659,34.528278 L135.582,31.034 L134.991608,31.0274105 C134.715482,31.0243761 134.494098,30.7980722 134.497132,30.5219465 C134.500167,30.2458208 134.726471,30.0244365 135.002596,30.0274709 L135.594,30.034 L129.296977,26.4003443 C129.084376,26.2776613 128.995959,26.0224282 129.07587,25.7992428 L129.113814,25.717372 C129.236497,25.5047705 129.49173,25.4163539 129.714915,25.4962652 Z M127.003079,29.9395641 L129.51331,29.967149 L131.002838,29.9835175 C131.278963,29.9865518 131.500348,30.2128558 131.497313,30.4889815 C131.494616,30.7344265 131.315508,30.9366191 131.081808,30.9763895 L130.991849,30.9834571 L129.502322,30.9670887 L126.992091,30.9395037 C126.715965,30.9364694 126.494581,30.7101654 126.497615,30.4340397 C126.50065,30.157914 126.726954,29.9365297 127.003079,29.9395641 Z M119.003562,29.8516573 L123.003321,29.8956107 C123.279446,29.898645 123.500831,30.124949 123.497796,30.4010747 C123.495099,30.6465198 123.315991,30.8487123 123.082291,30.8884827 L122.992332,30.8955503 L118.992574,30.8515969 C118.716448,30.8485626 118.495064,30.6222587 118.498098,30.3461329 C118.501133,30.0700072 118.727437,29.848623 119.003562,29.8516573 Z M111.004045,29.7637505 L115.003804,29.8077039 C115.279929,29.8107383 115.501314,30.0370422 115.498279,30.3131679 C115.495582,30.558613 115.316474,30.7608056 115.082774,30.8005759 L114.992815,30.8076435 L110.993057,30.7636902 C110.716931,30.7606558 110.495547,30.5343519 110.498581,30.2582262 C110.501616,29.9821005 110.72792,29.7607162 111.004045,29.7637505 Z M103.004528,29.6758437 L107.004287,29.7197971 C107.280412,29.7228315 107.501797,29.9491354 107.498762,30.2252611 C107.496065,30.4707062 107.316957,30.6728988 107.083257,30.7126692 L106.993298,30.7197368 L102.99354,30.6757834 C102.717414,30.672749 102.49603,30.4464451 102.499064,30.1703194 C102.502099,29.8941937 102.728402,29.6728094 103.004528,29.6758437 Z M95.0050112,29.587937 L99.0047697,29.6318904 C99.2808954,29.6349247 99.5022797,29.8612286 99.4992453,30.1373543 C99.4965481,30.3827994 99.3174404,30.584992 99.0837401,30.6247624 L98.9937813,30.63183 L94.9940228,30.5878766 C94.7178971,30.5848422 94.4965128,30.3585383 94.4995472,30.0824126 C94.5025815,29.8062869 94.7288855,29.5849026 95.0050112,29.587937 Z M87.0054942,29.5000302 L91.0052527,29.5439836 C91.2813784,29.5470179 91.5027627,29.7733219 91.4997283,30.0494476 C91.4970311,30.2948926 91.3179234,30.4970852 91.0842231,30.5368556 L90.9942643,30.5439232 L86.9945058,30.4999698 C86.7183801,30.4969355 86.4969958,30.2706315 86.5000302,29.9945058 C86.5030645,29.7183801 86.7293685,29.4969958 87.0054942,29.5000302 Z" fill="#979797" fill-rule="nonzero"></path>
                    <path id="Line-Copy-8" d="M129.03686,66.5 C129.120205,66.5 129.202405,66.5194048 129.276951,66.5566778 L129.276951,66.5566778 L137.203114,70.5197591 C137.468311,70.6523577 137.575803,70.974835 137.443205,71.2400322 C137.391256,71.3439293 137.307011,71.4281747 137.203114,71.4801233 L137.203114,71.4801233 L129.276951,75.4432046 C129.011754,75.5758032 128.689276,75.4683108 128.556678,75.2031136 C128.519405,75.1285676 128.5,75.0463674 128.5,74.9630225 L128.5,74.9630225 L128.5,71.5 L87,71.5 C86.7238576,71.5 86.5,71.2761424 86.5,71 C86.5,70.7545401 86.6768752,70.5503916 86.9101244,70.5080557 L87,70.5 L128.5,70.5 L128.5,67.0368599 C128.5,66.7700103 128.694692,66.5486335 128.949778,66.5070266 Z" fill="#979797" fill-rule="nonzero"></path>
                    <line x1="87" y1="111" x2="137" y2="111" id="Line-29-Copy" stroke="#979797" stroke-linecap="round" stroke-linejoin="round"></line>
                    <text id="Debendency-auto-inje" font-family="Cobbler-Black" font-size="9" font-weight="700" fill="#000000">
                        <tspan x="14.0695" y="109">Debendency </tspan>
                        <tspan x="16.675" y="118">auto inject</tspan>
                    </text>
                    <text id="Instance-Creation" font-family="Cobbler-Black" font-size="9" font-weight="700" fill="#000000">
                        <tspan x="21.013" y="152">Instance</tspan>
                        <tspan x="20.536" y="161">Creation</tspan>
                    </text>
                    <text id="Implement" font-family="Cobbler-Black" font-size="9" font-weight="700" fill="#000000">
                        <tspan x="18.427" y="74">Implement</tspan>
                    </text>
                    <text id="Dependent" font-family="Cobbler-Black" font-size="9" font-weight="700" fill="#000000">
                        <tspan x="16.639" y="33">Dependent</tspan>
                    </text>
                    <line x1="87" y1="111" x2="137" y2="111" id="Line-29-Copy-2" stroke="#979797" stroke-linecap="round" stroke-linejoin="round"></line>
                    <path id="Line-29-Copy-3" d="M137,149.5 C139.485281,149.5 141.5,151.514719 141.5,154 C141.5,156.485281 139.485281,158.5 137,158.5 C134.683966,158.5 132.776586,156.750342 132.527543,154.500707 L87,154.5 C86.7238576,154.5 86.5,154.276142 86.5,154 C86.5,153.75454 86.6768752,153.550392 86.9101244,153.508056 L87,153.5 L132.527432,153.500297 C132.776019,151.250179 134.683621,149.5 137,149.5 Z" fill="#979797" fill-rule="nonzero"></path>
                    <g id="Shared-Dependency-Block" transform="translate(14.000000, 225.000000)">
                        <polygon id="Fill-115" fill="#4CBBC5" fill-rule="evenodd" points="0 50 50 50 50 0 0 0"></polygon>
                        <text id="Dependency" font-family="Cobbler-Black" font-size="9" font-weight="700" fill="#FFFFFF">
                            <tspan x="10.5325" y="7">Shared</tspan>
                            <tspan x="10.672" y="16">Module</tspan>
                        </text>
                    </g>
                    <g id="Module-Block" transform="translate(94.000000, 225.000000)">
                        <polygon id="Fill-115" fill="#2C96B7" fill-rule="evenodd" points="0 50 50 50 50 0 0 0"></polygon>
                        <text id="Module" font-family="Cobbler-Black" font-size="9" font-weight="700" fill="#FFFFFF">
                            <tspan x="10.672" y="7">Module</tspan>
                        </text>
                    </g>
                    <g id="Api-Block" transform="translate(41.000000, 183.000000)">
                        <polygon id="Fill-114" fill="#2B6899" fill-rule="evenodd" points="0 16 63 16 63 0 0 0"></polygon>
                        <text id="API" font-family="Cobbler-Black" font-size="9" font-weight="700" fill="#D5D5D5">
                            <tspan x="14.76" y="7">Exposed</tspan>
                        </text>
                    </g>
                </g>
            </g>
        </g>
    </g>
</svg>