<?xml version="1.0" encoding="UTF-8"?>
<svg width="536px" height="341px" viewBox="0 0 536 341" version="1.1" xmlns="http://www.w3.org/2000/svg" xmlns:xlink="http://www.w3.org/1999/xlink">
    <!-- Generator: Sketch 60.1 (88133) - https://sketch.com -->
    <title>application-code-strcuture</title>
    <desc>Created with Sketch.</desc>
    <g id="Page-1" stroke="none" stroke-width="1" fill="none" fill-rule="evenodd">
        <g id="Code-Structure" transform="translate(-173.000000, -74.000000)">
            <g id="application-code-strcuture" transform="translate(173.000000, 74.000000)">
                <g id="Structure">
                    <g id="Api-Block" transform="translate(73.500000, 4.000000)">
                        <polygon id="Fill-114" fill="#2B6899" fill-rule="evenodd" points="0 16 63 16 63 0 0 0"></polygon>
                        <text id="API" font-family="Cobbler-Black" font-size="9" font-weight="700" fill="#D5D5D5">
                            <tspan x="8.352" y="7">Application</tspan>
                        </text>
                    </g>
                    <g id="Module-Block" transform="translate(0.000000, 50.000000)">
                        <polygon id="Fill-115" fill="#2C96B7" fill-rule="evenodd" points="0 50 50 50 50 0 0 0"></polygon>
                        <text id="Module" font-family="Cobbler-Black" font-size="9" font-weight="700" fill="#FFFFFF">
                            <tspan x="8.485" y="7">Adapter</tspan>
                        </text>
                    </g>
                    <g id="Module-Block" transform="translate(0.000000, 210.000000)">
                        <polygon id="Fill-115" fill="#2C96B7" fill-rule="evenodd" points="0 50 50 50 50 0 0 0"></polygon>
                        <text id="Module" font-family="Cobbler-Black" font-size="9" font-weight="700" fill="#FFFFFF">
                            <tspan x="9.5875" y="7">Domain</tspan>
                        </text>
                    </g>
                    <g id="Module-Block" transform="translate(160.000000, 50.000000)">
                        <polygon id="Fill-115" fill="#2C96B7" fill-rule="evenodd" points="0 50 50 50 50 0 0 0"></polygon>
                        <text id="Module" font-family="Cobbler-Black" font-size="9" font-weight="700" fill="#FFFFFF">
                            <tspan x="3.8365" y="7">Controller</tspan>
                        </text>
                    </g>
                    <g id="Module-Block" transform="translate(80.000000, 50.000000)">
                        <polygon id="Fill-115" fill="#2C96B7" fill-rule="evenodd" points="0 50 50 50 50 0 0 0"></polygon>
                        <text id="Module" font-family="Cobbler-Black" font-size="9" font-weight="700" fill="#FFFFFF">
                            <tspan x="15.928" y="7">Port</tspan>
                        </text>
                    </g>
                    <g id="Module-Block" transform="translate(80.000000, 210.000000)">
                        <polygon id="Fill-115" fill="#2C96B7" fill-rule="evenodd" points="0 50 50 50 50 0 0 0"></polygon>
                        <text id="Module" font-family="Cobbler-Black" font-size="9" font-weight="700" fill="#FFFFFF">
                            <tspan x="13.804" y="7">Store</tspan>
                        </text>
                    </g>
                    <g id="Module-Block" transform="translate(160.000000, 130.000000)">
                        <polygon id="Fill-115" fill="#2C96B7" fill-rule="evenodd" points="0 50 50 50 50 0 0 0"></polygon>
                        <text id="Module" font-family="Cobbler-Black" font-size="9" font-weight="700" fill="#FFFFFF">
                            <tspan x="7.6525" y="7">UseCase</tspan>
                        </text>
                    </g>
                    <g id="Module-Block" transform="translate(240.000000, 130.000000)">
                        <polygon id="Fill-115" fill="#2C96B7" fill-rule="evenodd" points="0 50 50 50 50 0 0 0"></polygon>
                        <text id="Module" font-family="Cobbler-Black" font-size="9" font-weight="700" fill="#FFFFFF">
                            <tspan x="6.4915" y="7">Contract</tspan>
                        </text>
                    </g>
                    <g id="Module-Block" transform="translate(240.000000, 50.000000)">
                        <polygon id="Fill-115" fill="#2C96B7" fill-rule="evenodd" points="0 50 50 50 50 0 0 0"></polygon>
                        <text id="Module" font-family="Cobbler-Black" font-size="9" font-weight="700" fill="#FFFFFF">
                            <tspan x="1.924" y="7">Integration</tspan>
                        </text>
                    </g>
                    <g id="Module-Block" transform="translate(160.000000, 210.000000)">
                        <polygon id="Fill-115" fill="#2C96B7" fill-rule="evenodd" points="0 50 50 50 50 0 0 0"></polygon>
                        <text id="Module" font-family="Cobbler-Black" font-size="9" font-weight="700" fill="#FFFFFF">
                            <tspan x="7.6525" y="7">UseCase</tspan>
                            <tspan x="9.3445" y="16">Factory</tspan>
                        </text>
                    </g>
                    <g id="Shared-Dependency-Block" transform="translate(80.000000, 291.000000)">
                        <polygon id="Fill-115" fill="#4CBBC5" fill-rule="evenodd" points="0 50 50 50 50 0 0 0"></polygon>
                        <text id="Dependency" font-family="Cobbler-Black" font-size="9" font-weight="700" fill="#FFFFFF">
                            <tspan x="9.088" y="7">Develop</tspan>
                            <tspan x="13.804" y="16">Store</tspan>
                        </text>
                    </g>
                    <g id="Shared-Dependency-Block" transform="translate(160.000000, 291.000000)">
                        <polygon id="Fill-115" fill="#4CBBC5" fill-rule="evenodd" points="0 50 50 50 50 0 0 0"></polygon>
                        <text id="Dependency" font-family="Cobbler-Black" font-size="9" font-weight="700" fill="#FFFFFF">
                            <tspan x="9.088" y="7">Develop</tspan>
                            <tspan x="7.6525" y="16">UseCase</tspan>
                        </text>
                    </g>
                    <g id="Shared-Dependency-Block" transform="translate(0.000000, 291.000000)">
                        <polygon id="Fill-115" fill="#4CBBC5" fill-rule="evenodd" points="0 50 50 50 50 0 0 0"></polygon>
                        <text id="Dependency" font-family="Cobbler-Black" font-size="9" font-weight="700" fill="#FFFFFF">
                            <tspan x="9.088" y="7">Develop</tspan>
                            <tspan x="10.5325" y="16">Shared</tspan>
                        </text>
                    </g>
                    <path id="Line-Copy" d="M190.245131,283.564212 C190.459067,283.684552 190.550283,283.938798 190.472829,284.162848 L190.435788,284.245131 L185.935788,292.245131 C185.760565,292.556638 185.334839,292.582597 185.117866,292.323007 L185.064212,292.245131 L180.564212,284.245131 C180.42883,284.004452 180.51419,283.699594 180.754869,283.564212 C180.968806,283.443873 181.233452,283.497947 181.384704,283.680485 L181.435788,283.754869 L185.5,290.98 L189.564212,283.754869 C189.699594,283.51419 190.004452,283.42883 190.245131,283.564212 Z M185.5,284 C185.74546,284 185.949608,284.176875 185.991944,284.410124 L186,284.5 L186,288.5 C186,288.776142 185.776142,289 185.5,289 C185.25454,289 185.050392,288.823125 185.008056,288.589876 L185,288.5 L185,284.5 C185,284.223858 185.223858,284 185.5,284 Z M185.5,276 C185.74546,276 185.949608,276.176875 185.991944,276.410124 L186,276.5 L186,280.5 C186,280.776142 185.776142,281 185.5,281 C185.25454,281 185.050392,280.823125 185.008056,280.589876 L185,280.5 L185,276.5 C185,276.223858 185.223858,276 185.5,276 Z M185.5,268 C185.74546,268 185.949608,268.176875 185.991944,268.410124 L186,268.5 L186,272.5 C186,272.776142 185.776142,273 185.5,273 C185.25454,273 185.050392,272.823125 185.008056,272.589876 L185,272.5 L185,268.5 C185,268.223858 185.223858,268 185.5,268 Z M185.5,260 C185.74546,260 185.949608,260.176875 185.991944,260.410124 L186,260.5 L186,264.5 C186,264.776142 185.776142,265 185.5,265 C185.25454,265 185.050392,264.823125 185.008056,264.589876 L185,264.5 L185,260.5 C185,260.223858 185.223858,260 185.5,260 Z" fill="#979797" fill-rule="nonzero"></path>
                    <path id="Line-Copy-2" d="M110.245131,283.564212 C110.459067,283.684552 110.550283,283.938798 110.472829,284.162848 L110.435788,284.245131 L105.935788,292.245131 C105.760565,292.556638 105.334839,292.582597 105.117866,292.323007 L105.064212,292.245131 L100.564212,284.245131 C100.42883,284.004452 100.51419,283.699594 100.754869,283.564212 C100.968806,283.443873 101.233452,283.497947 101.384704,283.680485 L101.435788,283.754869 L105.5,290.98 L109.564212,283.754869 C109.699594,283.51419 110.004452,283.42883 110.245131,283.564212 Z M105.5,284 C105.74546,284 105.949608,284.176875 105.991944,284.410124 L106,284.5 L106,288.5 C106,288.776142 105.776142,289 105.5,289 C105.25454,289 105.050392,288.823125 105.008056,288.589876 L105,288.5 L105,284.5 C105,284.223858 105.223858,284 105.5,284 Z M105.5,276 C105.74546,276 105.949608,276.176875 105.991944,276.410124 L106,276.5 L106,280.5 C106,280.776142 105.776142,281 105.5,281 C105.25454,281 105.050392,280.823125 105.008056,280.589876 L105,280.5 L105,276.5 C105,276.223858 105.223858,276 105.5,276 Z M105.5,268 C105.74546,268 105.949608,268.176875 105.991944,268.410124 L106,268.5 L106,272.5 C106,272.776142 105.776142,273 105.5,273 C105.25454,273 105.050392,272.823125 105.008056,272.589876 L105,272.5 L105,268.5 C105,268.223858 105.223858,268 105.5,268 Z M105.5,260 C105.74546,260 105.949608,260.176875 105.991944,260.410124 L106,260.5 L106,264.5 C106,264.776142 105.776142,265 105.5,265 C105.25454,265 105.050392,264.823125 105.008056,264.589876 L105,264.5 L105,260.5 C105,260.223858 105.223858,260 105.5,260 Z" fill="#979797" fill-rule="nonzero"></path>
                    <path id="Line" d="M30.2451306,283.564212 C30.4590675,283.684552 30.5502832,283.938798 30.4728292,284.162848 L30.4357878,284.245131 L25.9357878,292.245131 C25.7605651,292.556638 25.3348392,292.582597 25.117866,292.323007 L25.0642122,292.245131 L20.5642122,284.245131 C20.4288303,284.004452 20.5141904,283.699594 20.7548694,283.564212 C20.9688062,283.443873 21.2334521,283.497947 21.3847041,283.680485 L21.4357878,283.754869 L25.5,290.98 L29.5642122,283.754869 C29.6995941,283.51419 30.0044517,283.42883 30.2451306,283.564212 Z M25.5,284 C25.7454599,284 25.9496084,284.176875 25.9919443,284.410124 L26,284.5 L26,288.5 C26,288.776142 25.7761424,289 25.5,289 C25.2545401,289 25.0503916,288.823125 25.0080557,288.589876 L25,288.5 L25,284.5 C25,284.223858 25.2238576,284 25.5,284 Z M25.5,276 C25.7454599,276 25.9496084,276.176875 25.9919443,276.410124 L26,276.5 L26,280.5 C26,280.776142 25.7761424,281 25.5,281 C25.2545401,281 25.0503916,280.823125 25.0080557,280.589876 L25,280.5 L25,276.5 C25,276.223858 25.2238576,276 25.5,276 Z M25.5,268 C25.7454599,268 25.9496084,268.176875 25.9919443,268.410124 L26,268.5 L26,272.5 C26,272.776142 25.7761424,273 25.5,273 C25.2545401,273 25.0503916,272.823125 25.0080557,272.589876 L25,272.5 L25,268.5 C25,268.223858 25.2238576,268 25.5,268 Z M25.5,260 C25.7454599,260 25.9496084,260.176875 25.9919443,260.410124 L26,260.5 L26,264.5 C26,264.776142 25.7761424,265 25.5,265 C25.2545401,265 25.0503916,264.823125 25.0080557,264.589876 L25,264.5 L25,260.5 C25,260.223858 25.2238576,260 25.5,260 Z" fill="#979797" fill-rule="nonzero"></path>
                    <path id="Line-Copy-3" d="M58.4357878,230.754869 C58.5561272,230.968806 58.5020533,231.233452 58.3195146,231.384704 L58.2451306,231.435788 L51.019,235.5 L58.2451306,239.564212 C58.4590675,239.684552 58.5502832,239.938798 58.4728292,240.162848 L58.4357878,240.245131 C58.3154483,240.459067 58.0612021,240.550283 57.8371522,240.472829 L57.7548694,240.435788 L49.7548694,235.935788 C49.4433624,235.760565 49.4174034,235.334839 49.6769926,235.117866 L49.7548694,235.064212 L57.7548694,230.564212 C57.9955483,230.42883 58.3004059,230.51419 58.4357878,230.754869 Z M80.5,235 C80.7761424,235 81,235.223858 81,235.5 C81,235.74546 80.8231248,235.949608 80.5898756,235.991944 L80.5,236 L76.5,236 C76.2238576,236 76,235.776142 76,235.5 C76,235.25454 76.1768752,235.050392 76.4101244,235.008056 L76.5,235 L80.5,235 Z M72.5,235 C72.7761424,235 73,235.223858 73,235.5 C73,235.74546 72.8231248,235.949608 72.5898756,235.991944 L72.5,236 L68.5,236 C68.2238576,236 68,235.776142 68,235.5 C68,235.25454 68.1768752,235.050392 68.4101244,235.008056 L68.5,235 L72.5,235 Z M64.5,235 C64.7761424,235 65,235.223858 65,235.5 C65,235.74546 64.8231248,235.949608 64.5898756,235.991944 L64.5,236 L60.5,236 C60.2238576,236 60,235.776142 60,235.5 C60,235.25454 60.1768752,235.050392 60.4101244,235.008056 L60.5,235 L64.5,235 Z M56.5,235 C56.7761424,235 57,235.223858 57,235.5 C57,235.74546 56.8231248,235.949608 56.5898756,235.991944 L56.5,236 L52.5,236 C52.2238576,236 52,235.776142 52,235.5 C52,235.25454 52.1768752,235.050392 52.4101244,235.008056 L52.5,235 L56.5,235 Z" fill="#979797" fill-rule="nonzero"></path>
                    <path id="Line-Copy-4" d="M185.5,180 C185.74546,180 185.949608,180.176875 185.991944,180.410124 L186,180.5 L186,202 L189.46314,202 C189.72999,202 189.951367,202.194692 189.992973,202.449778 L190,202.53686 C190,202.620205 189.980595,202.702405 189.943322,202.776951 L189.943322,202.776951 L185.980241,210.703114 C185.847642,210.968311 185.525165,211.075803 185.259968,210.943205 C185.156071,210.891256 185.071825,210.807011 185.019877,210.703114 L185.019877,210.703114 L181.056795,202.776951 C180.924197,202.511754 181.031689,202.189276 181.296886,202.056678 C181.371432,202.019405 181.453633,202 181.536977,202 L181.536977,202 L185,202 L185,180.5 C185,180.223858 185.223858,180 185.5,180 Z" fill="#979797" fill-rule="nonzero"></path>
                    <path id="Line-Copy-5" d="M122.245131,202.564212 C122.459067,202.684552 122.550283,202.938798 122.472829,203.162848 L122.435788,203.245131 L117.935788,211.245131 C117.760565,211.556638 117.334839,211.582597 117.117866,211.323007 L117.064212,211.245131 L112.564212,203.245131 C112.42883,203.004452 112.51419,202.699594 112.754869,202.564212 C112.968806,202.443873 113.233452,202.497947 113.384704,202.680485 L113.435788,202.754869 L117,209.091 L117,208.5 C117,208.223858 117.223858,208 117.5,208 C117.74546,208 117.949608,208.176875 117.991944,208.410124 L118,208.5 L118,209.091 L121.564212,202.754869 C121.699594,202.51419 122.004452,202.42883 122.245131,202.564212 Z M117.5,200 C117.74546,200 117.949608,200.176875 117.991944,200.410124 L118,200.5 L118,204.5 C118,204.776142 117.776142,205 117.5,205 C117.25454,205 117.050392,204.823125 117.008056,204.589876 L117,204.5 L117,200.5 C117,200.223858 117.223858,200 117.5,200 Z M117.5,192 C117.74546,192 117.949608,192.176875 117.991944,192.410124 L118,192.5 L118,196.5 C118,196.776142 117.776142,197 117.5,197 C117.25454,197 117.050392,196.823125 117.008056,196.589876 L117,196.5 L117,192.5 C117,192.223858 117.223858,192 117.5,192 Z M117.5,184 C117.74546,184 117.949608,184.176875 117.991944,184.410124 L118,184.5 L118,188.5 C118,188.776142 117.776142,189 117.5,189 C117.25454,189 117.050392,188.823125 117.008056,188.589876 L117,188.5 L117,184.5 C117,184.223858 117.223858,184 117.5,184 Z M117.5,176 C117.74546,176 117.949608,176.176875 117.991944,176.410124 L118,176.5 L118,180.5 C118,180.776142 117.776142,181 117.5,181 C117.25454,181 117.050392,180.823125 117.008056,180.589876 L117,180.5 L117,176.5 C117,176.223858 117.223858,176 117.5,176 Z M117.5,168 C117.74546,168 117.949608,168.176875 117.991944,168.410124 L118,168.5 L118,172.5 C118,172.776142 117.776142,173 117.5,173 C117.25454,173 117.050392,172.823125 117.008056,172.589876 L117,172.5 L117,168.5 C117,168.223858 117.223858,168 117.5,168 Z M117.5,160 C117.74546,160 117.949608,160.176875 117.991944,160.410124 L118,160.5 L118,164.5 C118,164.776142 117.776142,165 117.5,165 C117.25454,165 117.050392,164.823125 117.008056,164.589876 L117,164.5 L117,160.5 C117,160.223858 117.223858,160 117.5,160 Z M120.5,155 C120.776142,155 121,155.223858 121,155.5 C121,155.74546 120.823125,155.949608 120.589876,155.991944 L120.5,156 L118,156 L118,156.5 C118,156.74546 117.823125,156.949608 117.589876,156.991944 L117.5,157 C117.25454,157 117.050392,156.823125 117.008056,156.589876 L117,156.5 L117,155.5 C117,155.25454 117.176875,155.050392 117.410124,155.008056 L117.5,155 L120.5,155 Z M160.5,155 C160.776142,155 161,155.223858 161,155.5 C161,155.74546 160.823125,155.949608 160.589876,155.991944 L160.5,156 L156.5,156 C156.223858,156 156,155.776142 156,155.5 C156,155.25454 156.176875,155.050392 156.410124,155.008056 L156.5,155 L160.5,155 Z M152.5,155 C152.776142,155 153,155.223858 153,155.5 C153,155.74546 152.823125,155.949608 152.589876,155.991944 L152.5,156 L148.5,156 C148.223858,156 148,155.776142 148,155.5 C148,155.25454 148.176875,155.050392 148.410124,155.008056 L148.5,155 L152.5,155 Z M144.5,155 C144.776142,155 145,155.223858 145,155.5 C145,155.74546 144.823125,155.949608 144.589876,155.991944 L144.5,156 L140.5,156 C140.223858,156 140,155.776142 140,155.5 C140,155.25454 140.176875,155.050392 140.410124,155.008056 L140.5,155 L144.5,155 Z M136.5,155 C136.776142,155 137,155.223858 137,155.5 C137,155.74546 136.823125,155.949608 136.589876,155.991944 L136.5,156 L132.5,156 C132.223858,156 132,155.776142 132,155.5 C132,155.25454 132.176875,155.050392 132.410124,155.008056 L132.5,155 L136.5,155 Z M128.5,155 C128.776142,155 129,155.223858 129,155.5 C129,155.74546 128.823125,155.949608 128.589876,155.991944 L128.5,156 L124.5,156 C124.223858,156 124,155.776142 124,155.5 C124,155.25454 124.176875,155.050392 124.410124,155.008056 L124.5,155 L128.5,155 Z" fill="#979797" fill-rule="nonzero"></path>
                    <path id="Line-Copy-6" d="M105,100 C105.24546,100 105.449608,100.176875 105.491944,100.410124 L105.5,100.5 L105.5,141 L155.527432,141.000297 C155.776019,138.750179 157.683621,137 160,137 C162.485281,137 164.5,139.014719 164.5,141.5 C164.5,143.985281 162.485281,146 160,146 C157.683966,146 155.776586,144.250342 155.527543,142.000707 L105,142 C104.75454,142 104.550392,141.823125 104.508056,141.589876 L104.5,141.5 L104.5,100.5 C104.5,100.223858 104.723858,100 105,100 Z" fill="#979797" fill-rule="nonzero"></path>
                    <path id="Line-26" d="M25.5,100 C25.7454599,100 25.9496084,100.176875 25.9919443,100.410124 L26,100.5 L26,154 L91.5,154 C91.7454599,154 91.9496084,154.176875 91.9919443,154.410124 L92,154.5 L92,201.5 L95.4631401,201.5 C95.7299897,201.5 95.9513665,201.694692 95.9929734,201.949778 L96,202.03686 C96,202.120205 95.9805952,202.202405 95.9433222,202.276951 L95.9433222,202.276951 L91.9802409,210.203114 C91.8476423,210.468311 91.525165,210.575803 91.2599678,210.443205 C91.1560707,210.391256 91.0718253,210.307011 91.0198767,210.203114 L91.0198767,210.203114 L87.0567954,202.276951 C86.9241968,202.011754 87.0316892,201.689276 87.2968864,201.556678 C87.3714324,201.519405 87.4536326,201.5 87.5369775,201.5 L87.5369775,201.5 L91,201.5 L91,155 L25.5,155 C25.2545401,155 25.0503916,154.823125 25.0080557,154.589876 L25,154.5 L25,100.5 C25,100.223858 25.2238576,100 25.5,100 Z" fill="#979797" fill-rule="nonzero"></path>
                    <polyline id="Line-27" stroke="#979797" stroke-linecap="round" stroke-linejoin="round" points="136 12.5 185.5 12.5 185.5 50"></polyline>
                    <polyline id="Line-28" stroke="#979797" stroke-linecap="round" stroke-linejoin="round" points="73.5 12.5 25.5 12.5 25.5 50"></polyline>
                    <line x1="105.5" y1="20.5" x2="105.5" y2="50.5" id="Line-29" stroke="#979797" stroke-linecap="round" stroke-linejoin="round"></line>
                    <g id="Api-Block" transform="translate(280.000000, 0.000000)">
                        <polygon id="Fill-114" fill="#2B6899" fill-rule="evenodd" points="0 30 63 30 63 0 0 0"></polygon>
                        <text id="API" font-family="Cobbler-Black" font-size="9" font-weight="700" fill="#D5D5D5">
                            <tspan x="7.875" y="7">Spring boot </tspan>
                            <tspan x="16.299" y="16">Starter</tspan>
                        </text>
                    </g>
                    <path id="Line-2" d="M218.190657,230.319082 L218.680918,231.190657 L218.245131,231.435788 L211.908,235 L216,235 L216,236 L211.908,236 L218.245131,239.564212 L218.680918,239.809343 L218.190657,240.680918 L217.754869,240.435788 L209.754869,235.935788 L208.980136,235.5 L209.754869,235.064212 L217.754869,230.564212 L218.190657,230.319082 Z M264,235 L264,236 L259,236 L259,235 L264,235 Z M256,235 L256,236 L251,236 L251,235 L256,235 Z M248,235 L248,236 L243,236 L243,235 L248,235 Z M240,235 L240,236 L235,236 L235,235 L240,235 Z M232,235 L232,236 L227,236 L227,235 L232,235 Z M224,235 L224,236 L219,236 L219,235 L224,235 Z M265,228 L265,233 L264,233 L264,228 L265,228 Z M265,220 L265,225 L264,225 L264,220 L265,220 Z M265,212 L265,217 L264,217 L264,212 L265,212 Z M265,204 L265,209 L264,209 L264,204 L265,204 Z M265,196 L265,201 L264,201 L264,196 L265,196 Z M265,188 L265,193 L264,193 L264,188 L265,188 Z M265,180 L265,185 L264,185 L264,180 L265,180 Z" fill="#979797" fill-rule="nonzero"></path>
                    <path id="Line-25" d="M186,99.5 L186,117.038 L248,117.038462 L248,121.5 L252,121.5 L247.5,130.5 L243,121.5 L247,121.5 L247,118.038 L185,118.038462 L185,99.5 L186,99.5 Z" fill="#979797" fill-rule="nonzero"></path>
                    <path id="Line-3" d="M265.5,100 C265.74546,100 265.949608,100.176875 265.991944,100.410124 L266,100.5 L266,122 L269.46314,122 C269.72999,122 269.951367,122.194692 269.992973,122.449778 L270,122.53686 C270,122.620205 269.980595,122.702405 269.943322,122.776951 L269.943322,122.776951 L265.980241,130.703114 C265.847642,130.968311 265.525165,131.075803 265.259968,130.943205 C265.156071,130.891256 265.071825,130.807011 265.019877,130.703114 L265.019877,130.703114 L261.056795,122.776951 C260.924197,122.511754 261.031689,122.189276 261.296886,122.056678 C261.371432,122.019405 261.453633,122 261.536977,122 L261.536977,122 L265,122 L265,100.5 C265,100.223858 265.223858,100 265.5,100 Z" fill="#979797" fill-rule="nonzero"></path>
                    <polyline id="Line-4" stroke="#979797" stroke-linecap="square" points="311.5 30.5 311.5 79.5 290 79.5"></polyline>
                </g>
                <g id="Specs" transform="translate(377.000000, 5.000000)">
                    <rect id="Rectangle" stroke="#979797" x="0" y="0" width="158" height="289"></rect>
                    <path id="Line-Copy-7" d="M129.714915,25.4962652 L129.796786,25.5342086 L137.746856,30.1218437 C138.056418,30.3004787 138.077698,30.7264641 137.81574,30.9405718 L137.737278,30.9933666 L129.688314,35.4051881 C129.446162,35.5379172 129.142261,35.4492124 129.009532,35.2070603 C128.89155,34.9918141 128.948529,34.7277784 129.132718,34.5785413 L129.207659,34.528278 L135.582,31.034 L134.991608,31.0274105 C134.715482,31.0243761 134.494098,30.7980722 134.497132,30.5219465 C134.500167,30.2458208 134.726471,30.0244365 135.002596,30.0274709 L135.594,30.034 L129.296977,26.4003443 C129.084376,26.2776613 128.995959,26.0224282 129.07587,25.7992428 L129.113814,25.717372 C129.236497,25.5047705 129.49173,25.4163539 129.714915,25.4962652 Z M127.003079,29.9395641 L129.51331,29.967149 L131.002838,29.9835175 C131.278963,29.9865518 131.500348,30.2128558 131.497313,30.4889815 C131.494616,30.7344265 131.315508,30.9366191 131.081808,30.9763895 L130.991849,30.9834571 L129.502322,30.9670887 L126.992091,30.9395037 C126.715965,30.9364694 126.494581,30.7101654 126.497615,30.4340397 C126.50065,30.157914 126.726954,29.9365297 127.003079,29.9395641 Z M119.003562,29.8516573 L123.003321,29.8956107 C123.279446,29.898645 123.500831,30.124949 123.497796,30.4010747 C123.495099,30.6465198 123.315991,30.8487123 123.082291,30.8884827 L122.992332,30.8955503 L118.992574,30.8515969 C118.716448,30.8485626 118.495064,30.6222587 118.498098,30.3461329 C118.501133,30.0700072 118.727437,29.848623 119.003562,29.8516573 Z M111.004045,29.7637505 L115.003804,29.8077039 C115.279929,29.8107383 115.501314,30.0370422 115.498279,30.3131679 C115.495582,30.558613 115.316474,30.7608056 115.082774,30.8005759 L114.992815,30.8076435 L110.993057,30.7636902 C110.716931,30.7606558 110.495547,30.5343519 110.498581,30.2582262 C110.501616,29.9821005 110.72792,29.7607162 111.004045,29.7637505 Z M103.004528,29.6758437 L107.004287,29.7197971 C107.280412,29.7228315 107.501797,29.9491354 107.498762,30.2252611 C107.496065,30.4707062 107.316957,30.6728988 107.083257,30.7126692 L106.993298,30.7197368 L102.99354,30.6757834 C102.717414,30.672749 102.49603,30.4464451 102.499064,30.1703194 C102.502099,29.8941937 102.728402,29.6728094 103.004528,29.6758437 Z M95.0050112,29.587937 L99.0047697,29.6318904 C99.2808954,29.6349247 99.5022797,29.8612286 99.4992453,30.1373543 C99.4965481,30.3827994 99.3174404,30.584992 99.0837401,30.6247624 L98.9937813,30.63183 L94.9940228,30.5878766 C94.7178971,30.5848422 94.4965128,30.3585383 94.4995472,30.0824126 C94.5025815,29.8062869 94.7288855,29.5849026 95.0050112,29.587937 Z M87.0054942,29.5000302 L91.0052527,29.5439836 C91.2813784,29.5470179 91.5027627,29.7733219 91.4997283,30.0494476 C91.4970311,30.2948926 91.3179234,30.4970852 91.0842231,30.5368556 L90.9942643,30.5439232 L86.9945058,30.4999698 C86.7183801,30.4969355 86.4969958,30.2706315 86.5000302,29.9945058 C86.5030645,29.7183801 86.7293685,29.4969958 87.0054942,29.5000302 Z" fill="#979797" fill-rule="nonzero"></path>
                    <path id="Line-Copy-8" d="M129.03686,66.5 C129.120205,66.5 129.202405,66.5194048 129.276951,66.5566778 L129.276951,66.5566778 L137.203114,70.5197591 C137.468311,70.6523577 137.575803,70.974835 137.443205,71.2400322 C137.391256,71.3439293 137.307011,71.4281747 137.203114,71.4801233 L137.203114,71.4801233 L129.276951,75.4432046 C129.011754,75.5758032 128.689276,75.4683108 128.556678,75.2031136 C128.519405,75.1285676 128.5,75.0463674 128.5,74.9630225 L128.5,74.9630225 L128.5,71.5 L87,71.5 C86.7238576,71.5 86.5,71.2761424 86.5,71 C86.5,70.7545401 86.6768752,70.5503916 86.9101244,70.5080557 L87,70.5 L128.5,70.5 L128.5,67.0368599 C128.5,66.7700103 128.694692,66.5486335 128.949778,66.5070266 Z" fill="#979797" fill-rule="nonzero"></path>
                    <line x1="87" y1="111" x2="137" y2="111" id="Line-29-Copy" stroke="#979797" stroke-linecap="round" stroke-linejoin="round"></line>
                    <text id="Debendency-auto-inje" font-family="Cobbler-Black" font-size="9" font-weight="700" fill="#000000">
                        <tspan x="14.0695" y="109">Debendency </tspan>
                        <tspan x="16.675" y="118">auto inject</tspan>
                    </text>
                    <text id="Instance-Creation" font-family="Cobbler-Black" font-size="9" font-weight="700" fill="#000000">
                        <tspan x="21.013" y="152">Instance</tspan>
                        <tspan x="20.536" y="161">Creation</tspan>
                    </text>
                    <text id="Implement" font-family="Cobbler-Black" font-size="9" font-weight="700" fill="#000000">
                        <tspan x="18.427" y="74">Implement</tspan>
                    </text>
                    <text id="Dependent" font-family="Cobbler-Black" font-size="9" font-weight="700" fill="#000000">
                        <tspan x="16.639" y="33">Dependent</tspan>
                    </text>
                    <line x1="87" y1="111" x2="137" y2="111" id="Line-29-Copy-2" stroke="#979797" stroke-linecap="round" stroke-linejoin="round"></line>
                    <path id="Line-29-Copy-3" d="M137,149.5 C139.485281,149.5 141.5,151.514719 141.5,154 C141.5,156.485281 139.485281,158.5 137,158.5 C134.683966,158.5 132.776586,156.750342 132.527543,154.500707 L87,154.5 C86.7238576,154.5 86.5,154.276142 86.5,154 C86.5,153.75454 86.6768752,153.550392 86.9101244,153.508056 L87,153.5 L132.527432,153.500297 C132.776019,151.250179 134.683621,149.5 137,149.5 Z" fill="#979797" fill-rule="nonzero"></path>
                    <g id="Shared-Dependency-Block" transform="translate(14.000000, 225.000000)">
                        <polygon id="Fill-115" fill="#4CBBC5" fill-rule="evenodd" points="0 50 50 50 50 0 0 0"></polygon>
                        <text id="Dependency" font-family="Cobbler-Black" font-size="9" font-weight="700" fill="#FFFFFF">
                            <tspan x="10.5325" y="7">Shared</tspan>
                            <tspan x="10.672" y="16">Module</tspan>
                        </text>
                    </g>
                    <g id="Module-Block" transform="translate(94.000000, 225.000000)">
                        <polygon id="Fill-115" fill="#2C96B7" fill-rule="evenodd" points="0 50 50 50 50 0 0 0"></polygon>
                        <text id="Module" font-family="Cobbler-Black" font-size="9" font-weight="700" fill="#FFFFFF">
                            <tspan x="10.672" y="7">Module</tspan>
                        </text>
                    </g>
                    <g id="Api-Block" transform="translate(41.000000, 183.000000)">
                        <polygon id="Fill-114" fill="#2B6899" fill-rule="evenodd" points="0 16 63 16 63 0 0 0"></polygon>
                        <text id="API" font-family="Cobbler-Black" font-size="9" font-weight="700" fill="#D5D5D5">
                            <tspan x="14.76" y="7">Exposed</tspan>
                        </text>
                    </g>
                </g>
            </g>
        </g>
    </g>
</svg>